<svg width="60" height="48" viewBox="0 0 60 48" fill="none" xmlns="http://www.w3.org/2000/svg">
<path d="M27.1553 46.7851L28.3085 39.2716C28.3547 39.0104 28.4777 38.78 28.693 38.5802C28.939 38.3497 29.2311 38.2422 29.5387 38.2422C29.8462 38.2422 30.1076 38.3344 30.3383 38.5341C30.5689 38.7339 30.7227 38.949 30.7842 39.2102L32.2757 44.5418L33.7827 39.2102C33.8595 38.949 34.0133 38.7339 34.2286 38.5495C34.4746 38.3497 34.7514 38.2422 35.0436 38.2422C35.3665 38.2422 35.6432 38.3497 35.8739 38.5495C36.1045 38.7492 36.2276 38.9951 36.2737 39.2563L37.4577 46.7697V47.0156C37.4577 47.3075 37.3654 47.538 37.1963 47.7223C37.0271 47.9067 36.8119 47.9835 36.5505 47.9835C36.2429 47.9835 36.0123 47.9067 35.8739 47.7684C35.7355 47.6148 35.6279 47.3843 35.5664 47.0463L34.8437 41.561L33.306 47.2153C33.2445 47.4458 33.1522 47.6148 33.0292 47.7223C32.8601 47.9067 32.614 47.9835 32.3065 47.9835C31.999 47.9835 31.7683 47.8914 31.5838 47.7223C31.4454 47.5841 31.3531 47.415 31.307 47.2153L29.8001 41.561L29.0159 47.0463C28.9697 47.3689 28.8775 47.6148 28.7391 47.7531C28.5853 47.9067 28.3547 47.9835 28.0471 47.9835C27.7857 47.9835 27.5705 47.8914 27.4013 47.7223C27.2322 47.5533 27.1399 47.3075 27.1399 47.0156C27.1245 46.908 27.1399 46.8312 27.1553 46.7851Z" fill="black"/>
<path d="M41.8093 43.9126C41.4095 44.1431 41.0866 44.2506 40.6561 44.2506C40.2409 44.2506 39.9795 44.1738 39.7335 43.9894C39.5028 43.8204 39.3644 43.5592 39.3337 43.3441C39.3337 43.3134 39.349 43.2673 39.3798 43.2519C40.164 43.2212 41.5325 43.1597 41.8555 43.0675C41.8862 43.0368 41.9477 42.8063 41.9477 42.7602C41.8708 42.7449 41.7786 42.6834 41.7632 42.6373C41.6863 42.161 41.3173 41.3927 40.2101 41.3927C39.8103 41.3927 39.3798 41.5157 39.0569 41.6847C38.5341 41.9766 38.1497 42.5144 38.1497 43.2365C38.1497 43.7129 38.3188 44.266 38.7493 44.6194C39.0415 44.8652 39.4413 45.0189 40.041 45.0189C40.6099 45.0189 41.3788 44.773 41.7939 44.3121C41.8093 44.266 41.8708 44.0662 41.8555 43.9741C41.8555 43.9587 41.8247 43.928 41.8093 43.9126ZM39.9334 41.823C40.3332 41.823 40.5792 42.1917 40.6407 42.6834C40.6253 42.7141 40.6099 42.7449 40.5638 42.7602C40.3947 42.791 39.672 42.791 39.3798 42.791C39.3337 42.791 39.3029 42.7449 39.3029 42.7295C39.3337 42.2378 39.5643 41.823 39.9334 41.823ZM47.3911 44.3582C47.145 44.3582 47.0067 44.3582 46.899 44.3428C46.7914 44.3274 46.7299 44.266 46.7299 44.0816V42.7141C46.7299 41.4542 46.7453 40.8242 46.7606 40.3326C46.776 39.9177 46.7606 39.7794 46.8683 39.6411C46.8836 39.6104 46.8375 39.4721 46.7914 39.4414C46.4223 39.5643 45.3767 39.6872 44.7924 39.6872C44.7309 39.718 44.7155 39.9945 44.7463 40.0406C44.9769 40.0714 45.1922 40.0867 45.346 40.1328C45.5151 40.1943 45.5459 40.3018 45.5612 40.4401C45.5766 40.6552 45.5766 40.9011 45.5766 41.3774C45.5766 41.4081 45.5459 41.4235 45.5305 41.4235C45.4382 41.4081 45.3152 41.4081 45.223 41.4081C44.5925 41.4081 43.7775 41.654 43.3931 41.9305C42.9472 42.2225 42.6397 42.7295 42.6397 43.3287C42.6397 43.7897 42.8088 44.2506 43.0856 44.5426C43.347 44.8191 43.7468 45.0035 44.1927 45.0035C44.5002 45.0035 45.0384 44.8038 45.4997 44.5426C45.5151 44.5272 45.5459 44.5579 45.5459 44.5733C45.5612 44.7116 45.5612 44.896 45.5766 44.9728C45.592 45.0035 45.6381 45.065 45.6689 45.065C45.9149 45.065 46.9451 44.8806 47.3142 44.7423C47.3449 44.7116 47.4065 44.4043 47.3911 44.3582ZM44.7001 41.8691C44.9154 41.8691 45.1614 41.9152 45.346 42.0381C45.5305 42.161 45.5612 42.2839 45.5612 42.4529C45.5612 42.9292 45.5612 43.7743 45.5459 43.9894C45.5459 44.0816 45.5305 44.1431 45.4844 44.1738C45.346 44.266 45.1461 44.3121 45.0077 44.3121C44.3157 44.3121 43.839 43.8204 43.839 42.9446C43.839 42.499 43.9928 42.2071 44.1773 42.0381C44.3465 41.9152 44.531 41.8691 44.7001 41.8691ZM50.0666 44.5887C49.836 44.5579 49.7437 44.5272 49.6515 44.5118C49.5284 44.4811 49.4669 44.3889 49.4669 44.1738C49.4516 43.7897 49.4516 43.298 49.4516 42.8524V41.4081C48.9749 41.5618 48.0215 41.6847 47.7755 41.6847C47.7294 41.7308 47.6832 41.9459 47.7294 42.0073C48.0523 42.0995 48.1445 42.161 48.2214 42.2378C48.2675 42.2685 48.2829 42.3607 48.2829 42.4222V43.1751C48.2829 43.5899 48.2829 44.0201 48.2675 44.2199C48.2522 44.4043 48.2522 44.4657 48.1292 44.5118C48.0215 44.5426 47.9139 44.5579 47.714 44.5887C47.6525 44.6347 47.6832 44.9113 47.714 44.9574C47.9293 44.9574 48.3137 44.9267 48.8211 44.9267C49.5438 44.9267 49.8821 44.9574 50.0205 44.9574C50.082 44.9113 50.1281 44.6347 50.0666 44.5887ZM49.4362 40.3479C49.4362 40.2711 49.4208 40.1021 49.3439 40.0253C49.2978 39.9792 49.144 39.9331 48.9134 39.9331C48.652 39.9331 48.3291 40.0099 48.1907 40.1482C48.1138 40.225 48.1138 40.4709 48.1292 40.5323C48.206 40.7628 48.3137 40.855 48.4674 40.9164C48.5597 40.9625 49.0979 40.9472 49.1748 40.8703C49.3285 40.7474 49.4362 40.5169 49.4362 40.3479ZM56.4018 44.3735C56.1558 44.3735 56.0789 44.2199 56.0789 43.9433C56.0943 43.636 56.2634 42.8524 56.4326 42.1456C56.4941 41.8691 56.571 41.7 56.6479 41.5157C56.4018 41.4696 56.0943 41.3927 55.5407 41.3927C54.8027 41.3927 53.8185 41.8844 53.4649 42.2378C52.9728 42.6834 52.573 43.4363 52.573 44.1431C52.573 44.5272 52.696 45.0496 53.1727 45.0496C53.6033 45.0496 54.4029 44.604 54.9564 43.9741C54.9718 43.9433 55.0026 43.9587 55.0026 43.9894C54.9564 44.2353 54.9564 44.3735 54.941 44.4965C54.9257 44.7577 55.0333 45.065 55.4639 45.065C56.7555 45.065 58.4469 44.2353 58.4469 42.3607C58.4469 41.2391 57.4475 39.8409 55.3716 39.8409C54.08 39.8409 52.9267 40.2865 52.0195 41.1008C51.2353 41.7922 50.7432 42.7295 50.7432 43.8204C50.7432 46.0176 52.696 46.7858 53.2804 46.7858C53.5725 46.7858 54.0338 46.7244 54.2645 46.54C54.2798 46.5093 54.2798 46.3863 54.2645 46.371C54.0031 46.4017 53.5879 46.3403 53.3572 46.2942C52.5115 46.1098 51.635 45.3108 51.635 43.7589C51.635 41.2698 53.6802 40.3633 54.941 40.3633C56.3865 40.3633 57.7396 41.0394 57.7396 42.7602C57.7242 43.805 56.9861 44.3735 56.4018 44.3735ZM54.0338 44.1277C53.8647 44.1277 53.7109 43.9741 53.7263 43.5746C53.7263 43.1904 53.8493 42.791 54.0031 42.5144C54.2798 42.0688 54.572 41.9613 54.9257 41.9613C55.1102 41.9613 55.3408 41.992 55.4946 42.0688C55.4485 42.161 55.3716 42.3915 55.3255 42.5451C55.1871 43.0368 55.1256 43.1904 55.0179 43.3441C54.6335 43.8972 54.2798 44.1277 54.0338 44.1277Z" fill="black"/>
<path fill-rule="evenodd" clip-rule="evenodd" d="M60 0C57.1399 8.758 53.4187 17.8387 47.2681 24.6607C40.4254 31.621 29.7078 31.9898 22.327 32.3278C14.9462 32.6658 8.94924 32.6044 5.04355 34.5557C1.13786 36.507 0.630432 39.8566 0.630432 39.8566L1.01485 37.7823L3.72115 33.9104L17.6371 29.2087L37.7499 26.3816L50.9123 18.2535L56.0174 9.01921L59.0928 2.0128L60 0Z" fill="black"/>
<path fill-rule="evenodd" clip-rule="evenodd" d="M54.0184 12.1836C54.0338 12.1836 52.2655 15.4717 48.8365 17.592C46.4838 19.0517 43.4393 19.8968 40.164 20.0351C35.7663 20.2194 32.0758 19.989 29.2773 20.6036C26.6786 21.1721 24.3875 22.0632 23.5571 25.8123C23.5571 25.8123 23.2957 22.0786 27.8626 19.82C32.4295 17.5459 43.9006 18.4678 47.6832 16.6394C49.2517 15.8865 50.7125 15.2105 52.0041 14.1503C52.7576 13.5203 53.4188 13.0133 54.0184 12.1836Z" fill="black"/>
<path fill-rule="evenodd" clip-rule="evenodd" d="M33.7673 15.8413C33.1061 14.9348 31.7068 12.9834 25.3101 15.1038C20.4203 16.7171 16.3301 18.2536 12.6089 17.47C10.2716 16.9783 8.58018 15.3957 6.93487 13.7209C4.47459 11.1857 2.70627 8.60443 2.82928 8.54297L4.12093 10.1563L7.93436 13.6595L14.3618 16.502L24.4336 14.3355L30.0615 13.3215L31.8298 13.8285L33.0753 14.7197L33.5059 15.2882L33.7058 15.6569L33.7673 15.8413Z" fill="black"/>
<path fill-rule="evenodd" clip-rule="evenodd" d="M2.82929 8.54344C2.82929 8.54344 7.82672 15.0582 13.716 15.0274C17.2065 15.0121 21.3275 13.9365 24.818 13.3066C26.2788 13.0454 27.7088 12.8763 28.8621 12.8763C30.6458 12.861 33.4597 13.7675 33.7673 15.8418C33.7673 15.8418 32.4602 12.3693 25.8021 14.4436C20.2665 16.1798 15.5766 17.6087 11.9016 16.5793C11.0405 16.3335 10.2562 15.9493 9.56429 15.5037C8.05738 14.5204 6.78111 13.1222 5.53559 11.8008C3.85953 9.98774 2.6909 8.51271 2.82929 8.54344Z" fill="#FF7506"/>
<path fill-rule="evenodd" clip-rule="evenodd" d="M0.630438 39.8566C0.630438 39.8566 0.276773 37.4136 2.5064 34.7401C4.02869 32.9117 6.91952 30.9603 11.3634 29.7311C22.2962 26.6889 36.7042 25.5365 41.3173 23.4622C45.9149 21.388 50.0974 18.2074 52.0656 15.2727C54.0184 12.338 53.9723 12.2458 54.0031 12.2458C54.0184 12.2458 52.4346 15.0423 48.9134 16.9936C47.4218 17.8233 45.1768 18.8067 43.1317 19.0371C36.2122 19.8054 32.2296 19.2215 29.1543 20.0359C26.0789 20.8502 24.9718 22.064 24.2491 23.5391C23.5264 24.9987 23.5725 25.8284 23.5725 25.8284C23.5725 25.8284 23.2035 21.6492 27.7704 19.3752C32.3373 17.1012 44.3157 16.9014 48.083 15.0576C49.6515 14.3047 51.1122 13.6287 52.4039 12.5685C54.2337 11.0627 55.4331 9.08067 56.9708 5.94622C59.6156 0.568502 60 0 60 0C57.0477 7.86684 53.5264 17.1012 47.6679 23.0781C40.8252 30.0384 30.1076 30.6837 22.7268 31.0218C15.346 31.3598 9.05689 31.8361 5.1512 33.7875C1.24551 35.7388 0.630438 39.8566 0.630438 39.8566Z" fill="#FF7506"/>
<path d="M2.50639 40.0254H4.67451L7.01177 45.0036H4.87441L4.613 44.3429H2.50639L2.26036 45.0036H0.169128L2.50639 40.0254ZM2.90619 43.2981H4.25934L3.56739 41.5158L2.90619 43.2981ZM7.76523 40.0254H9.9026V43.8359H12.8242V44.9883H7.74986V40.0254H7.76523ZM13.3931 40.0254H19.3593V41.3314H17.4526V45.0036H15.3306V41.3314H13.3931V40.0254ZM22.0963 40.0254H24.2645L26.6017 45.0036H24.4797L24.2183 44.3429H22.0963L21.8503 45.0036H19.7745L22.0963 40.0254ZM22.4961 43.2981H23.8493L23.1573 41.5158L22.4961 43.2981Z" fill="#231F20" stroke="white" stroke-width="0.109501" stroke-miterlimit="2.6131"/>
<path d="M2.50639 40.0254H4.67451L7.01177 45.0036H4.87441L4.613 44.3429H2.50639L2.26036 45.0036H0.169128L2.50639 40.0254ZM2.90619 43.2981H4.25934L3.56739 41.5158L2.90619 43.2981ZM7.76523 40.0254H9.9026V43.8359H12.8242V44.9883H7.74986V40.0254H7.76523ZM13.3931 40.0254H19.3593V41.3314H17.4526V45.0036H15.3306V41.3314H13.3931V40.0254ZM22.0963 40.0254H24.2645L26.6017 45.0036H24.4797L24.2183 44.3429H22.0963L21.8503 45.0036H19.7745L22.0963 40.0254ZM22.4961 43.2981H23.8493L23.1573 41.5158L22.4961 43.2981Z" fill="white" stroke="black" stroke-width="0.290356"/>
</svg>
